<svg xmlns="http://www.w3.org/2000/svg" xmlns:xlink="http://www.w3.org/1999/xlink" version="1.1" x="0px" y="0px" width="62.891px" height="7.075px" viewBox="0 0 62.891 7.075" enable-background="new 0 0 62.891 7.075" xml:space="preserve"><style>.style0{fill:	#010202;}</style><g><path d="M0 5.859V5.386h0.482V2.435H0V1.962h1.003v1.569C1.27 3.2 1.6 3.1 2 3.1 c0.373 0 0.7 0.1 0.9 0.385c0.253 0.3 0.4 0.6 0.4 1.016c0 0.403-0.124 0.742-0.371 1 C2.687 5.8 2.4 5.9 2 5.904c-0.217 0-0.415-0.048-0.595-0.141C1.21 5.7 1.1 5.6 1 5.453v0.406H0z M1.02 4.5 c0 0.3 0.1 0.5 0.3 0.671c0.173 0.2 0.4 0.2 0.6 0.248c0.238 0 0.442-0.088 0.614-0.263 c0.172-0.176 0.258-0.412 0.258-0.706c0-0.286-0.086-0.508-0.257-0.666C2.321 3.6 2.1 3.6 1.9 3.6 c-0.226 0-0.427 0.082-0.605 0.245C1.108 4 1 4.2 1 4.5" class="style0"/><polygon points="4.7,5.8 3.8,3.6 3.4,3.6 3.4,3.1 4.7,3.1 4.7,3.6 4.4,3.6 5,5.1 5.5,3.6 5.2,3.6 5.2,3.1 6.5,3.1 6.5,3.6 6.1,3.6 4.8,7.1 3.9,7.1 3.9,6.6 4.4,6.6" class="style0"/><path d="M18.662 5.937h-3.274V5.148c0.233-0.026 0.465-0.059 0.698-0.079c0.18-0.016 0.18-0.01 0.18-0.193 c0-0.633-0.001-1.266 0.002-1.898c0.001-0.083-0.025-0.103-0.103-0.102c-0.247 0.005-0.493 0.002-0.739 0.002h-0.101V1.94h0.941 c0-0.052-0.002-0.094 0-0.135c0.014-0.221 0.006-0.447 0.048-0.663c0.1-0.518 0.435-0.836 0.925-1.002 C17.496 0.1 17.8 0 18 0c0.312-0.003 0.6 0 0.9 0.015c0.079 0 0.2 0 0.2 0 c-0.029 0.327-0.058 0.65-0.089 0.984c-0.101-0.015-0.199-0.029-0.297-0.043C18.623 1 18.4 1 18.2 1 c-0.268 0.065-0.419 0.253-0.425 0.53c-0.002 0.1 0 0.223-0.002 0.334c-0.002 0.1 0 0.1 0.1 0.1 c0.306-0.002 0.614-0.001 0.9 0c0.018 0 0 0 0.1 0.003v0.934h-1.058v0.117c0 0.7 0 1.308-0.002 2 c0 0.1 0 0.1 0.1 0.105c0.257 0 0.5 0.1 0.8 0.085V5.937z" class="style0"/><path d="M19.279 5.935V5.149c0.285-0.033 0.572-0.068 0.865-0.104c0.002-0.026 0.005-0.052 0.005-0.077 c0-0.665-0.001-1.33 0.001-1.994c0.001-0.076-0.019-0.1-0.097-0.099c-0.254 0.005-0.508 0-0.762 0 c-0.066 0.001-0.087-0.018-0.086-0.085c0.003-0.257 0.002-0.514-0.001-0.771c-0.001-0.063 0.016-0.087 0.084-0.086 c0.252 0 0.5 0 0.8 0.002h0.106c0-0.077 0.001-0.145 0-0.212c-0.004-0.231 0.007-0.46 0.072-0.683 c0.134-0.467 0.455-0.749 0.902-0.903c0.26-0.088 0.527-0.138 0.8-0.14c0.309-0.003 0.6 0 0.9 0 c0.081 0 0.2 0 0.2 0.032c-0.01 0.136-0.018 0.267-0.029 0.397c-0.014 0.166-0.033 0.331-0.046 0.5 c-0.008 0.09-0.016 0.096-0.107 0.08c-0.232-0.042-0.464-0.073-0.701-0.044c-0.339 0.039-0.526 0.236-0.539 0.6 c-0.003 0.1 0 0.196-0.003 0.294c-0.003 0.1 0 0.1 0.1 0.086c0.291-0.003 0.582-0.001 0.873-0.001h0.086 c0.003 0 0 0.1 0 0.081c0.001 0.257-0.002 0.5 0 0.771c0.002 0.072-0.023 0.09-0.091 0.1 c-0.291-0.004-0.583 0-0.874-0.003c-0.07-0.001-0.09 0.021-0.09 0.091c0.003 0.7 0 1.3 0 2 c-0.001 0.1 0 0.1 0.1 0.098c0.265 0 0.5 0.1 0.8 0.09v0.786H19.279z" class="style0"/><path d="M46.84 3.031c-0.382 0-0.752 0-1.123-0.002c-0.02 0-0.051-0.026-0.058-0.046 c-0.018-0.06-0.021-0.125-0.038-0.186c-0.006-0.02-0.035-0.048-0.053-0.048c-0.303-0.004-0.604-0.003-0.906-0.004 c-0.042-0.001-0.055 0.019-0.054 0.058c0 0.2 0 0.455-0.001 0.683c0 0 0 0.1 0.1 0.1 c0.271-0.001 0.54-0.001 0.8 0c0.044 0 0.056-0.018 0.066-0.058c0.033-0.135 0.036-0.133 0.178-0.133c0.241 0 0.5 0 0.7 0 v1.075c-0.027 0.002-0.057 0.007-0.088 0.007c-0.233 0.001-0.466-0.002-0.699 0.001c-0.067 0.002-0.106-0.019-0.114-0.086 c-0.007-0.061-0.038-0.081-0.101-0.081c-0.254 0.004-0.508 0.002-0.763 0.002c-0.023 0-0.047 0.002-0.077 0 c-0.002 0.032-0.006 0.061-0.006 0.088c0 0.2 0 0.494-0.001 0.74c-0.001 0.1 0 0.1 0.1 0.1 c0.277-0.004 0.556-0.004 0.8 0c0.062 0 0.084-0.024 0.094-0.079c0.014-0.08 0.029-0.16 0.049-0.239 c0.005-0.02 0.032-0.045 0.049-0.045c0.38-0.002 0.762-0.002 1.148-0.002v1.104h-4.498V5.288c0.236-0.027 0.476-0.055 0.727-0.083 V5.124c0-0.787-0.002-1.574 0.001-2.36c0-0.078-0.023-0.096-0.098-0.099c-0.195-0.009-0.39-0.029-0.584-0.047 c-0.018-0.002-0.048-0.029-0.048-0.045c-0.003-0.208-0.002-0.416-0.002-0.63h4.473V3.031z" class="style0"/><path d="M61.923 5.937h-2.943V5.289c0.238-0.025 0.478-0.052 0.722-0.078V2.777h-0.279 c-0.09 0-0.18 0.003-0.27-0.001c-0.05-0.001-0.067 0.016-0.073 0.067c-0.016 0.12-0.038 0.24-0.062 0.4 c-0.006 0.02-0.035 0.051-0.054 0.051c-0.312 0.002-0.625 0-0.937-0.001c-0.005 0-0.009-0.004-0.019-0.009V1.942h4.883v1.307 c-0.021 0.002-0.039 0.006-0.057 0.006c-0.292 0.001-0.583-0.001-0.874 0.001c-0.052 0-0.075-0.016-0.082-0.069 c-0.019-0.134-0.045-0.265-0.069-0.41h-0.394c-0.206 0-0.206 0-0.206 0.208c0 0.7 0 1.4 0 2.1 c0 0.1 0 0.1 0.1 0.106c0.186 0 0.4 0 0.6 0.065c0.02 0 0 0 0 0.1 C61.924 5.5 61.9 5.7 61.9 5.9" class="style0"/><path d="M30.066 4.814c0.01 0.1 0 0.2 0 0.224c0.025 0.3 0 0.5 0.1 0.8 c0.004 0.044-0.006 0.06-0.051 0.066C29.836 5.9 29.6 6 29.3 6c-0.26 0.023-0.524 0.028-0.785 0 c-0.503-0.022-0.992-0.11-1.43-0.383c-0.444-0.276-0.687-0.686-0.757-1.197c-0.056-0.409-0.031-0.812 0.12-1.202 c0.209-0.54 0.598-0.899 1.124-1.12c0.356-0.15 0.731-0.215 1.116-0.243c0.297-0.021 0.592-0.009 0.9 0 c0.176 0 0.3 0.1 0.5 0.083c0.044 0 0.1 0 0.1 0.074c-0.001 0.413-0.001 0.8 0 1.2 c0 0.046-0.015 0.067-0.064 0.066c-0.285-0.001-0.572-0.001-0.857 0c-0.045 0-0.065-0.014-0.073-0.06 c-0.019-0.112-0.041-0.223-0.07-0.333c-0.008-0.027-0.043-0.064-0.069-0.068c-0.232-0.031-0.46-0.021-0.67 0.1 c-0.293 0.166-0.421 0.437-0.456 0.757c-0.025 0.23-0.014 0.5 0.1 0.677c0.128 0.3 0.4 0.4 0.7 0.5 C29.113 5 29.6 5 30.1 4.8" class="style0"/><path d="M26.313 5.147v0.71c0 0.023-0.003 0.048-0.004 0.077h-3.202V5.15c0.175-0.022 0.352-0.044 0.529-0.065 c0.097-0.011 0.194-0.019 0.291-0.034c0.017-0.003 0.033-0.028 0.045-0.048c0.006-0.01 0.002-0.026 0.002-0.039 c0-0.668-0.001-1.335 0.001-2.002c0-0.078-0.02-0.105-0.101-0.11c-0.24-0.014-0.479-0.038-0.718-0.061 c-0.02-0.002-0.054-0.029-0.054-0.044c-0.004-0.244-0.003-0.487-0.003-0.741c0.801-0.064 1.595-0.109 2.403-0.066v0.107 c0 1 0 1.934-0.002 2.901c-0.001 0.1 0 0.1 0.1 0.114C25.831 5.1 26.1 5.1 26.3 5.1" class="style0"/><path d="M24.733 1.512c-0.311-0.009-0.588-0.097-0.791-0.349c-0.192-0.238-0.181-0.554 0.026-0.782 c0.156-0.173 0.355-0.264 0.58-0.299c0.28-0.044 0.549-0.003 0.8 0.151c0.199 0.1 0.3 0.3 0.3 0.6 c0.001 0.259-0.141 0.435-0.347 0.568C25.148 1.5 24.9 1.5 24.7 1.5" class="style0"/><path d="M42.095 3.364c-0.117-0.556-0.472-0.915-0.977-1.14c-0.489-0.217-1.01-0.288-1.537-0.299 c-0.537-0.012-1.075 0.004-1.612 0.008c-0.381 0.002-0.762 0.002-1.144 0.004h-0.101c0 0.219-0.001 0.4 0 0.6 c0 0 0 0 0 0.044c0.202 0 0.4 0 0.6 0.047c0.072 0 0.1 0 0.1 0.1 c-0.002 0.795-0.002 1.6 0 2.383c0 0.065-0.021 0.082-0.085 0.087c-0.203 0.017-0.404 0.04-0.605 0.1 c-0.021 0.003-0.053 0.038-0.054 0.06c-0.003 0.189-0.002 0.381-0.002 0.581c0.031 0 0.1 0 0.1 0 c0.494 0 1 0 1.5 0.028c0.55 0 1.1 0 1.647-0.061c0.48-0.082 0.942-0.216 1.354-0.485 C42.04 4.9 42.3 4.2 42.1 3.4 M40.458 4.426c-0.178 0.352-0.48 0.544-0.852 0.625C39.432 5.1 39.2 5.1 39.1 5.1 c-0.066 0.005-0.099-0.02-0.099-0.097c0.005-0.354 0.003-0.71 0.003-1.063c0-0.353 0.002-0.705-0.003-1.057 c0-0.077 0.02-0.108 0.1-0.11c0.373-0.014 0.7 0 1.1 0.209c0.249 0.2 0.4 0.4 0.4 0.7 C40.591 3.9 40.6 4.2 40.5 4.4" class="style0"/><path d="M57.617 3.026c-0.274-0.544-0.729-0.88-1.294-1.079c-0.426-0.15-0.866-0.198-1.316-0.172 c-0.362 0.02-0.714 0.089-1.048 0.229C53.06 2.4 52.5 3.2 52.6 4.222c0.08 0.7 0.4 1.2 1 1.5 c0.48 0.3 1 0.4 1.5 0.363c0.001 0 0 0 0 0.021c0.263-0.034 0.529-0.055 0.79-0.104 c0.446-0.087 0.851-0.274 1.188-0.584c0.363-0.334 0.567-0.75 0.617-1.242C57.854 3.8 57.8 3.4 57.6 3 M55.669 5 c-0.636 0.261-1.398-0.029-1.547-0.822c-0.077-0.414 0.012-0.788 0.305-1.101c0.17-0.181 0.387-0.277 0.63-0.303 c0.355-0.04 0.7 0 0.9 0.294c0.236 0.2 0.3 0.5 0.3 0.912C56.315 4.4 56.1 4.8 55.7 5" class="style0"/><path d="M35.037 3.347c-0.091-0.553-0.371-0.972-0.869-1.235c-0.305-0.161-0.633-0.232-0.974-0.257 c-0.434-0.034-0.86-0.007-1.275 0.129c-0.609 0.2-1.058 0.579-1.292 1.186c-0.164 0.427-0.176 0.869-0.098 1.3 c0.1 0.6 0.4 1 0.9 1.256c0.4 0.2 0.8 0.3 1.3 0.293c0.608 0 1.21-0.021 1.802-0.168 c0.119-0.029 0.236-0.065 0.356-0.099c-0.047-0.314-0.092-0.616-0.138-0.924c-0.372 0.124-0.736 0.207-1.112 0.2 c-0.318 0.021-0.635 0.032-0.945-0.051C32.349 4.9 32.1 4.7 32 4.36c-0.018-0.111-0.014-0.12 0.096-0.12 c0.93 0 1.9 0 2.8 0.001c0.055 0 0.1 0 0.11-0.073C35.065 3.9 35.1 3.6 35 3.3 M33.557 3.428h-1.523 c0.029-0.095 0.045-0.183 0.082-0.261c0.118-0.249 0.323-0.379 0.592-0.423c0.15-0.024 0.295-0.011 0.4 0 C33.434 2.9 33.6 3.1 33.6 3.4" class="style0"/><path d="M52.079 2.515c-0.207-0.229-0.479-0.351-0.77-0.439c-0.399-0.122-0.812-0.162-1.228-0.165 c-0.492-0.004-0.984 0.016-1.477 0.023c-0.296 0.004-0.593 0.003-0.889 0.004c-0.028 0-0.056 0.002-0.091 0 c0 0.214-0.001 0.4 0 0.626c0 0 0 0 0.1 0.048c0.199 0 0.4 0 0.6 0 c0.06 0 0.1 0 0.1 0.08c-0.001 0.802-0.001 1.6 0 2.407c0 0.051-0.012 0.072-0.069 0.1 c-0.202 0.018-0.404 0.04-0.605 0.066c-0.021 0.002-0.054 0.03-0.054 0.048c-0.003 0.195-0.002 0.391-0.002 0.598h0.375 c0.834 0 1.7 0 2.5 0.002c0.073 0 0.094-0.021 0.091-0.093c-0.005-0.159-0.003-0.318 0-0.478 c0-0.053-0.009-0.08-0.072-0.085c-0.195-0.017-0.393-0.041-0.59-0.061c-0.044-0.005-0.084-0.004-0.083-0.067 c0.002-0.132-0.001-0.265 0.003-0.396c0.001-0.019 0.03-0.051 0.049-0.052c0.112-0.006 0.227-0.004 0.34-0.006 c0.348-0.008 0.688-0.061 1.018-0.175c0.334-0.115 0.632-0.285 0.852-0.571C52.451 3.5 52.4 2.9 52.1 2.5 M50.587 3.8 c-0.213 0.106-0.441 0.117-0.673 0.097c-0.053-0.005-0.064-0.032-0.064-0.078c0.002-0.164 0.001-0.328 0.001-0.492 c0-0.162 0.001-0.323-0.001-0.484c-0.001-0.057 0.013-0.082 0.078-0.088c0.191-0.017 0.38-0.01 0.6 0 c0.238 0.1 0.4 0.2 0.4 0.484C50.915 3.5 50.8 3.7 50.6 3.8" class="style0"/><path d="M11.907 6.003c-0.694 0.004-1.256-0.099-1.785-0.351c-0.771-0.367-1.321-0.94-1.528-1.779 C8.318 2.8 8.6 1.8 9.4 0.978c0.356-0.327 0.78-0.539 1.242-0.677c0.432-0.128 0.875-0.181 1.324-0.156 c0.787 0 1.5 0.3 2.1 0.786c0.543 0.5 0.9 1 1 1.751c0.086 0.657-0.011 1.281-0.349 1.9 c-0.372 0.631-0.931 1.029-1.615 1.259C12.637 6 12.3 6 11.9 6 M13.195 3.849c0.166-0.4 0.194-0.814 0.095-1.235 c-0.08-0.343-0.237-0.645-0.508-0.877c-0.36-0.309-0.784-0.396-1.245-0.327c-0.466 0.068-0.813 0.315-1.044 0.7 c-0.245 0.433-0.292 0.897-0.198 1.38c0.147 0.8 0.7 1.2 1.5 1.239C12.442 4.8 13 4.4 13.2 3.8" class="style0"/></g></svg>