<?xml version="1.0" encoding="utf-8"?>
<!-- Generator: Adobe Illustrator 15.0.2, SVG Export Plug-In . SVG Version: 6.00 Build 0)  -->
<!DOCTYPE svg PUBLIC "-//W3C//DTD SVG 1.1//EN" "http://www.w3.org/Graphics/SVG/1.1/DTD/svg11.dtd">
<svg version="1.1" id="Layer_1" xmlns="http://www.w3.org/2000/svg" xmlns:xlink="http://www.w3.org/1999/xlink" x="0px" y="0px"
	 width="408.249px" height="139.243px" viewBox="0 0 408.249 139.243" enable-background="new 0 0 408.249 139.243"
	 xml:space="preserve">
<g>
	<defs>
		<path id="SVGID_1_" d="M75.441,0.542L48.404,50.384L21.365,0.542H0l48.404,89.232L96.803,0.542H75.441z M113.296,89.774h19.751V0
			h-19.751V89.774z M154.205,0v18.214h27.319v71.561h19.749V18.214h27.315V0H154.205z M277.184,0l-48.404,89.774h21.368
			l27.036-50.145l27.034,50.145h21.366L277.184,0z M343.741,0v89.774h64.508V71.819h-44.758V0H343.741z"/>
	</defs>
	<use xlink:href="#SVGID_1_"  overflow="visible" fill="#FFFFFF"/>
	<clipPath id="SVGID_2_">
		<use xlink:href="#SVGID_1_"  overflow="visible"/>
	</clipPath>
	
		<rect x="8.903" y="-104.761" transform="matrix(0.8356 -0.5494 0.5494 0.8356 8.9034 119.5214)" clip-path="url(#SVGID_2_)" fill="#FFFFFF" width="390.444" height="299.294"/>
</g>
<g>
	<path fill="#FFFFFF" d="M37.902,139.243c-6.299,0-10.998-4.911-10.998-11.152c0-6.178,4.603-11.215,11.154-11.215
		c3.985,0,6.395,1.39,8.468,3.366l-2.446,2.812c-1.725-1.607-3.582-2.687-6.052-2.687c-4.141,0-7.14,3.396-7.14,7.66
		s2.999,7.726,7.14,7.726c2.656,0,4.357-1.082,6.208-2.812l2.44,2.473C44.423,137.761,41.952,139.243,37.902,139.243"/>
	<path fill="#FFFFFF" d="M66.56,139.243c-6.646,0-11.28-5.034-11.28-11.151c0-6.118,4.699-11.216,11.34-11.216
		c6.642,0,11.275,5.036,11.275,11.152C77.895,134.146,73.201,139.243,66.56,139.243 M66.56,120.368c-4.297,0-7.295,3.43-7.295,7.66
		c0,4.234,3.059,7.726,7.355,7.726c4.292,0,7.291-3.432,7.291-7.662C73.911,123.857,70.852,120.368,66.56,120.368"/>
	<polygon fill="#FFFFFF" points="99.324,133.561 99.198,133.561 92.436,123.425 92.436,138.873 88.698,138.873 88.698,117.246 
		92.743,117.246 99.324,127.473 105.905,117.246 109.95,117.246 109.95,138.873 106.15,138.873 106.15,123.364 	"/>
	<polygon fill="#FFFFFF" points="132.339,133.561 132.213,133.561 125.451,123.425 125.451,138.873 121.713,138.873 
		121.713,117.246 125.758,117.246 132.339,127.473 138.92,117.246 142.965,117.246 142.965,138.873 139.166,138.873 
		139.166,123.364 	"/>
	<path fill="#FFFFFF" d="M172.891,129.513c0,6.458-3.643,9.7-9.298,9.7c-5.625,0-9.207-3.242-9.207-9.517v-12.449h3.799v12.296
		c0,4.018,2.072,6.179,5.469,6.179c3.371,0,5.438-2.038,5.438-6.025v-12.449h3.799V129.513z"/>
	<polygon fill="#FFFFFF" points="199.411,117.246 203.149,117.246 203.149,138.873 199.969,138.873 188.045,123.487 
		188.045,138.873 184.307,138.873 184.307,117.246 187.829,117.246 199.411,132.199 	"/>
	<rect x="215.128" y="117.246" fill="#FFFFFF" width="3.799" height="21.627"/>
	<path fill="#FFFFFF" d="M240.929,139.243c-6.299,0-10.998-4.911-10.998-11.152c0-6.178,4.603-11.215,11.154-11.215
		c3.984,0,6.395,1.39,8.468,3.366l-2.446,2.812c-1.725-1.607-3.582-2.687-6.052-2.687c-4.141,0-7.14,3.396-7.14,7.66
		s2.999,7.726,7.14,7.726c2.656,0,4.357-1.082,6.208-2.812l2.441,2.473C247.449,137.761,244.979,139.243,240.929,139.243"/>
	<path fill="#FFFFFF" d="M280.586,138.874h-4.016l-2.193-5.224h-10.229l-2.224,5.224h-3.895l9.521-21.781h3.521L280.586,138.874z
		 M269.245,121.634l-3.708,8.65h7.445L269.245,121.634z"/>
	<polygon fill="#FFFFFF" points="296.847,138.873 293.018,138.873 293.018,120.769 286.16,120.769 286.16,117.246 303.709,117.246 
		303.709,120.769 296.847,120.769 	"/>
	<rect x="314.133" y="117.246" fill="#FFFFFF" width="3.799" height="21.627"/>
	<path fill="#FFFFFF" d="M340.221,139.243c-6.646,0-11.28-5.034-11.28-11.151c0-6.118,4.699-11.216,11.341-11.216
		s11.274,5.036,11.274,11.152C351.556,134.146,346.862,139.243,340.221,139.243 M340.221,120.368c-4.297,0-7.295,3.43-7.295,7.66
		c0,4.234,3.059,7.726,7.355,7.726c4.292,0,7.291-3.432,7.291-7.662C347.572,123.857,344.513,120.368,340.221,120.368"/>
	<polygon fill="#FFFFFF" points="377.463,117.246 381.2,117.246 381.2,138.873 378.021,138.873 366.097,123.487 366.097,138.873 
		362.358,138.873 362.358,117.246 365.881,117.246 377.463,132.199 	"/>
	<path fill="#FFFFFF" d="M401.301,126.33c4.567,1.112,6.947,2.75,6.947,6.365c0,4.077-3.18,6.487-7.723,6.487
		c-3.305,0-6.425-1.145-9.021-3.461l2.283-2.718c2.073,1.791,4.142,2.811,6.833,2.811c2.345,0,3.829-1.082,3.829-2.75
		c0-1.574-0.865-2.41-4.881-3.335c-4.603-1.112-7.2-2.473-7.2-6.488c0-3.771,3.091-6.304,7.387-6.304
		c3.149,0,5.649,0.958,7.844,2.719l-2.038,2.873c-1.947-1.452-3.894-2.224-5.871-2.224c-2.224,0-3.521,1.142-3.521,2.596
		C396.169,124.6,397.159,125.342,401.301,126.33"/>
</g>
<g>
	<defs>
		<polygon id="SVGID_3_" points="263.259,66.032 277.141,90.006 290.874,66.032 		"/>
	</defs>
	<use xlink:href="#SVGID_3_"  overflow="visible" fill="#FFFFFF"/>
	<clipPath id="SVGID_4_">
		<use xlink:href="#SVGID_3_"  overflow="visible"/>
	</clipPath>
	
		<rect x="259.782" y="60.068" transform="matrix(0.5 -0.866 0.866 0.5 70.9629 278.9529)" clip-path="url(#SVGID_4_)" fill="#FFFFFF" width="34.569" height="35.903"/>
</g>
</svg>
